<?xml version="1.0" encoding="UTF-8" standalone="no"?>
<svg
   xmlns:dc="http://purl.org/dc/elements/1.1/"
   xmlns:cc="http://creativecommons.org/ns#"
   xmlns:rdf="http://www.w3.org/1999/02/22-rdf-syntax-ns#"
   xmlns:svg="http://www.w3.org/2000/svg"
   xmlns="http://www.w3.org/2000/svg"
   xmlns:sodipodi="http://sodipodi.sourceforge.net/DTD/sodipodi-0.dtd"
   xmlns:inkscape="http://www.inkscape.org/namespaces/inkscape"
   version="1.1"
   id="svg2"
   viewBox="0 0 134.39154 28.507297"
   height="100"
   width="200"
   inkscape:version="0.91 r13725"
   sodipodi:docname="drawing.svg">
  <sodipodi:namedview
     pagecolor="#ffffff"
     bordercolor="#666666"
     borderopacity="1"
     objecttolerance="10"
     gridtolerance="10"
     guidetolerance="10"
     inkscape:pageopacity="0"
     inkscape:pageshadow="2"
     inkscape:window-width="1280"
     inkscape:window-height="1013"
     id="namedview4190"
     showgrid="false"
     units="px"
     fit-margin-top="0"
     fit-margin-left="0"
     fit-margin-right="0"
     fit-margin-bottom="0"
     inkscape:zoom="1.5412944"
     inkscape:cx="45.097682"
     inkscape:cy="-65.190887"
     inkscape:window-x="0"
     inkscape:window-y="11"
     inkscape:window-maximized="0"
     inkscape:current-layer="svg2" />
  <defs
     id="defs4" />
  <metadata
     id="metadata7">
    <rdf:RDF>
      <cc:Work
         rdf:about="">
        <dc:format>image/svg+xml</dc:format>
        <dc:type
           rdf:resource="http://purl.org/dc/dcmitype/StillImage" />
        <dc:title></dc:title>
      </cc:Work>
    </rdf:RDF>
  </metadata>
  <g
     id="layer1"
     transform="translate(-271.87578,-470.98069)">
    <g
       id="g4367">
      <path
         id="path4359"
         d="m 275.79157,458.17086 0,34.57617 3.69726,-0.69336 c -0.64181,-1.78356 -1.08203,-3.89195 -1.08203,-6.71289 l 0,-0.44922 c 0,-4.45776 0.73289,-7.65559 2.19532,-9.59375 1.46242,-1.93816 3.88461,-2.9082 7.26757,-2.9082 6.27259,0 9.40821,4.15038 9.40821,12.44922 0,1.48752 -0.22189,2.71487 -0.43555,3.95312 l 2.78125,-0.52343 c 0.15238,-1.11644 0.42969,-2.10565 0.42969,-3.37696 0,-4.86301 -1.02253,-8.55461 -3.06641,-11.07422 -2.02625,-2.53722 -5.04718,-3.80664 -9.06445,-3.80664 -2.16721,0 -4.02565,0.4063 -5.57617,1.2168 -1.53291,0.8105 -2.84704,2.07797 -3.93946,3.80469 l -0.18359,0 0.0781,-2.2461 c 0.0705,-1.30385 0.10547,-2.73072 0.10547,-4.28125 l 0,-10.33398 -2.61523,0 z m 108.4668,0 0,14.19336 2.61523,-0.49024 0,-13.70312 -2.61523,0 z m 12.26172,0 0,11.88867 2.61718,-0.49023 0,-11.39844 -2.61718,0 z m -87.18946,1.87695 c -1.11003,0 -1.66601,0.84563 -1.66601,2.53711 0,1.70911 0.55598,2.5625 1.66601,2.5625 0.54621,0 0.96805,-0.22743 1.26758,-0.68554 0.31715,-0.45811 0.47656,-1.08407 0.47656,-1.87696 0,-0.8105 -0.15941,-1.43646 -0.47656,-1.87695 -0.29953,-0.44049 -0.72137,-0.66016 -1.26758,-0.66016 z m 23.31055,9.96289 c -4.33443,0 -7.48949,1.55129 -9.46289,4.65235 l -0.1582,0 -0.50196,-4.09766 -2.2207,0 0,13.81836 2.64648,-0.49609 c 0.0376,-4.00028 0.79266,-6.93525 2.32227,-8.72266 1.56815,-1.85006 4.02727,-2.77539 7.375,-2.77539 4.82702,0 7.66291,2.75578 8.66797,8.04687 l 2.65429,-0.5 c -0.48619,-2.4137 -1.22177,-4.54578 -2.46875,-6.09374 -2.02625,-2.55485 -4.97719,-3.83204 -8.85351,-3.83204 z m 31.00195,0 c -3.96441,0 -7.08449,1.31413 -9.35742,3.93946 -1.0971,1.25868 -1.91487,2.7706 -2.48242,4.51367 l 3.32422,-0.625 c 0.34166,-0.73701 0.59046,-1.57331 1.0625,-2.17188 1.72672,-2.18483 4.17612,-3.27734 7.34765,-3.27734 2.75858,0 4.87389,0.98381 6.55274,2.63672 l 3.12695,-0.58594 c -0.10811,-0.13846 -0.18497,-0.30407 -0.29883,-0.4375 -2.23769,-2.66056 -5.32859,-3.99219 -9.27539,-3.99219 z m -55.60742,0.55469 0,16.12305 2.61523,-0.49219 0,-15.63086 -2.61523,0 z"
         style="font-style:normal;font-weight:normal;font-size:54.12747574px;line-height:125%;font-family:Sans;letter-spacing:0px;word-spacing:0px;fill:#000000;fill-opacity:1;stroke:none;stroke-width:1px;stroke-linecap:butt;stroke-linejoin:miter;stroke-opacity:1"
         inkscape:connector-curvature="0" />
      <path
         id="path4361"
         d="m 402.35156,469.5693 -2.61718,0.49023 0,29.23633 2.61718,0 0,-29.72656 z m -12.26367,2.30468 -2.61523,0.49024 0,26.93164 2.61523,0 0,-27.42188 z m -13.65625,2.56641 -3.12695,0.58594 c 0.25132,0.24744 0.59318,0.35614 0.82031,0.64062 1.76196,2.18484 2.64258,5.2602 2.64258,9.22461 0,3.9468 -0.87089,7.02993 -2.61524,9.25 -1.72672,2.20246 -4.17612,3.30274 -7.34765,3.30274 -3.17153,0 -5.63066,-1.10028 -7.375,-3.30274 -1.72673,-2.22007 -2.58985,-5.3032 -2.58985,-9.25 0,-2.88222 0.60656,-5.12128 1.50196,-7.05273 l -3.32422,0.625 c -0.60829,1.86817 -0.92578,4.00314 -0.92578,6.42773 0,2.97772 0.51126,5.60207 1.5332,7.875 1.02194,2.27293 2.49352,4.01862 4.41406,5.23438 1.92054,1.21575 4.14055,1.82226 6.66016,1.82226 3.99965,0 7.13527,-1.31217 9.4082,-3.9375 2.27293,-2.64294 3.41016,-6.30732 3.41016,-10.99414 0,-4.38328 -1.0526,-7.84706 -3.08594,-10.45117 z m -29.25391,5.49609 -2.65429,0.5 c 0.2643,1.39142 0.47656,2.85599 0.47656,4.61329 0,3.92917 -0.81064,6.98704 -2.43164,9.17187 -1.60339,2.18483 -3.87588,3.27539 -6.81836,3.27539 -3.40059,0 -5.85971,-0.96032 -7.375,-2.88086 -1.49767,-1.92054 -2.24609,-5.12613 -2.24609,-9.61914 l 0,-0.8457 c 0,-0.1022 0.0283,-0.16288 0.0293,-0.26367 l -2.64648,0.49609 0,27.91406 2.61719,0 0,-10.9414 c 0,-1.55053 -0.035,-2.9774 -0.10547,-4.28125 l -0.0801,-2.22071 0.18555,0 c 2.02625,3.31249 5.2513,4.96875 9.67382,4.96875 3.70012,0 6.61608,-1.29468 8.74805,-3.88476 2.1496,-2.60771 3.22461,-6.27208 3.22461,-10.99414 0,-1.89606 -0.28695,-3.4653 -0.59766,-5.00782 z m -33.3125,6.25977 -2.61523,0.49219 0,12.60742 2.61523,0 0,-13.09961 z m -11.02734,2.07227 -2.78125,0.52343 c -0.36842,2.13517 -0.93967,4.03568 -1.94336,5.42969 -1.58576,2.18483 -3.94574,3.27539 -7.08203,3.27539 -3.22439,0 -5.60381,-0.94087 -7.13672,-2.82617 -0.52911,-0.65831 -0.84705,-1.66027 -1.19141,-2.61719 l -3.69726,0.69336 0,6.54883 1.63867,0 0.74024,-4.33594 0.23632,0 c 0.95146,1.55053 2.2481,2.74996 3.88672,3.59571 1.63863,0.84574 3.47956,1.26757 5.52344,1.26757 3.87632,0 6.87974,-1.29468 9.01172,-3.88476 1.57727,-1.90048 2.37498,-4.59314 2.79492,-7.66992 z"
         style="font-style:normal;font-weight:normal;font-size:54.12747574px;line-height:125%;font-family:Sans;letter-spacing:0px;word-spacing:0px;fill:#000000;fill-opacity:1;stroke:none;stroke-width:1px;stroke-linecap:butt;stroke-linejoin:miter;stroke-opacity:1"
         inkscape:connector-curvature="0" />
    </g>
  </g>
</svg>
